<svg width="374" height="141" viewBox="0 0 374 141" fill="none" xmlns="http://www.w3.org/2000/svg">
<mask id="path-1-outside-1_63_279" maskUnits="userSpaceOnUse" x="0" y="0" width="433" height="141" fill="black">
<rect fill="white" width="433" height="141"/>
<path d="M3.84084 5.79999H34.1588C44.6988 5.79999 52.3868 8.27999 57.2228 13.24C62.0588 18.076 64.4768 25.578 64.4768 35.746V43.744C64.4768 57.26 60.0128 65.816 51.0848 69.412V69.784C56.0448 71.272 59.5168 74.31 61.5008 78.898C63.6088 83.486 64.6628 89.624 64.6628 97.312V120.19C64.6628 123.91 64.7868 126.948 65.0348 129.304C65.2828 131.536 65.9028 133.768 66.8948 136H46.0628C45.3188 133.892 44.8228 131.908 44.5748 130.048C44.3268 128.188 44.2028 124.84 44.2028 120.004V96.196C44.2028 90.244 43.2108 86.09 41.2268 83.734C39.3668 81.378 36.0808 80.2 31.3688 80.2H24.3008V136H3.84084V5.79999ZM31.7408 61.6C35.8328 61.6 38.8708 60.546 40.8548 58.438C42.9628 56.33 44.0168 52.796 44.0168 47.836V37.792C44.0168 33.08 43.1488 29.67 41.4128 27.562C39.8008 25.454 37.1968 24.4 33.6008 24.4H24.3008V61.6H31.7408ZM94.6684 5.79999H122.382L143.586 136H123.126L119.406 110.146V110.518H96.1564L92.4364 136H73.4644L94.6684 5.79999ZM116.988 92.848L107.874 28.492H107.502L98.5744 92.848H116.988ZM153.513 5.79999H183.645C193.813 5.79999 201.439 8.52799 206.523 13.984C211.607 19.44 214.149 27.438 214.149 37.978V50.812C214.149 61.352 211.607 69.35 206.523 74.806C201.439 80.262 193.813 82.99 183.645 82.99H173.973V136H153.513V5.79999ZM183.645 64.39C186.993 64.39 189.473 63.46 191.085 61.6C192.821 59.74 193.689 56.578 193.689 52.114V36.676C193.689 32.212 192.821 29.05 191.085 27.19C189.473 25.33 186.993 24.4 183.645 24.4H173.973V64.39H183.645ZM254.835 137.86C244.791 137.86 237.103 135.008 231.771 129.304C226.439 123.6 223.773 115.54 223.773 105.124V36.676C223.773 26.26 226.439 18.2 231.771 12.496C237.103 6.79199 244.791 3.93999 254.835 3.93999C264.879 3.93999 272.567 6.79199 277.899 12.496C283.231 18.2 285.897 26.26 285.897 36.676V105.124C285.897 115.54 283.231 123.6 277.899 129.304C272.567 135.008 264.879 137.86 254.835 137.86ZM254.835 119.26C261.903 119.26 265.437 114.982 265.437 106.426V35.374C265.437 26.818 261.903 22.54 254.835 22.54C247.767 22.54 244.233 26.818 244.233 35.374V106.426C244.233 114.982 247.767 119.26 254.835 119.26ZM326.331 137.86C316.411 137.86 308.909 135.07 303.825 129.49C298.741 123.786 296.199 115.664 296.199 105.124V97.684H315.543V106.612C315.543 115.044 319.077 119.26 326.145 119.26C329.617 119.26 332.221 118.268 333.957 116.284C335.817 114.176 336.747 110.828 336.747 106.24C336.747 100.784 335.507 96.01 333.027 91.918C330.547 87.702 325.959 82.68 319.263 76.852C310.831 69.412 304.941 62.716 301.593 56.764C298.245 50.688 296.571 43.868 296.571 36.304C296.571 26.012 299.175 18.076 304.383 12.496C309.591 6.79199 317.155 3.93999 327.075 3.93999C336.871 3.93999 344.249 6.79199 349.209 12.496C354.293 18.076 356.835 26.136 356.835 36.676V42.07H337.491V35.374C337.491 30.91 336.623 27.686 334.887 25.702C333.151 23.594 330.609 22.54 327.261 22.54C320.441 22.54 317.031 26.694 317.031 35.002C317.031 39.714 318.271 44.116 320.751 48.208C323.355 52.3 328.005 57.26 334.701 63.088C343.257 70.528 349.147 77.286 352.371 83.362C355.595 89.438 357.207 96.568 357.207 104.752C357.207 115.416 354.541 123.6 349.209 129.304C344.001 135.008 336.375 137.86 326.331 137.86ZM398.513 137.86C388.469 137.86 380.781 135.008 375.449 129.304C370.117 123.6 367.45 115.54 367.45 105.124V36.676C367.45 26.26 370.117 18.2 375.449 12.496C380.781 6.79199 388.469 3.93999 398.513 3.93999C408.557 3.93999 416.245 6.79199 421.577 12.496C426.909 18.2 429.575 26.26 429.575 36.676V105.124C429.575 115.54 426.909 123.6 421.577 129.304C416.245 135.008 408.557 137.86 398.513 137.86ZM398.513 119.26C405.581 119.26 409.114 114.982 409.114 106.426V35.374C409.114 26.818 405.581 22.54 398.513 22.54C391.445 22.54 387.911 26.818 387.911 35.374V106.426C387.911 114.982 391.445 119.26 398.513 119.26Z"/>
</mask>
<path d="M3.84084 5.79999V2.79999H0.840844V5.79999H3.84084ZM57.2228 13.24L55.0748 15.3343L55.0881 15.3479L55.1015 15.3613L57.2228 13.24ZM51.0848 69.412L49.964 66.6292L48.0848 67.3861V69.412H51.0848ZM51.0848 69.784H48.0848V72.0161L50.2228 72.6575L51.0848 69.784ZM61.5008 78.898L58.7473 80.0887L58.7607 80.1198L58.7748 80.1505L61.5008 78.898ZM65.0348 129.304L62.0513 129.618L62.0522 129.627L62.0532 129.635L65.0348 129.304ZM66.8949 136V139H71.5111L69.6363 134.782L66.8949 136ZM46.0628 136L43.2339 136.998L43.9403 139H46.0628V136ZM41.2268 83.734L38.8722 85.5929L38.9016 85.6301L38.9321 85.6664L41.2268 83.734ZM24.3008 80.2V77.2H21.3008V80.2H24.3008ZM24.3008 136V139H27.3008V136H24.3008ZM3.84084 136H0.840844V139H3.84084V136ZM40.8548 58.438L38.7335 56.3167L38.7014 56.3488L38.6702 56.3819L40.8548 58.438ZM41.4128 27.562L39.0298 29.3843L39.0626 29.4273L39.0971 29.4691L41.4128 27.562ZM24.3008 24.4V21.4H21.3008V24.4H24.3008ZM24.3008 61.6H21.3008V64.6H24.3008V61.6ZM3.84084 5.79999V8.79999H34.1588V5.79999V2.79999H3.84084V5.79999ZM34.1588 5.79999V8.79999C44.3061 8.79999 51.0396 11.1956 55.0748 15.3343L57.2228 13.24L59.3708 11.1457C53.7341 5.36442 45.0916 2.79999 34.1588 2.79999V5.79999ZM57.2228 13.24L55.1015 15.3613C59.1517 19.4115 61.4768 25.9896 61.4768 35.746H64.4768H67.4768C67.4768 25.1664 64.966 16.7405 59.3442 11.1187L57.2228 13.24ZM64.4768 35.746H61.4768V43.744H64.4768H67.4768V35.746H64.4768ZM64.4768 43.744H61.4768C61.4768 50.2012 60.4062 55.1975 58.4691 58.9103C56.5666 62.5567 53.7634 65.0989 49.964 66.6292L51.0848 69.412L52.2057 72.1948C57.3343 70.129 61.2271 66.5953 63.7886 61.6857C66.3155 56.8425 67.4768 50.8028 67.4768 43.744H64.4768ZM51.0848 69.412H48.0848V69.784H51.0848H54.0848V69.412H51.0848ZM51.0848 69.784L50.2228 72.6575C54.37 73.9016 57.1289 76.3463 58.7473 80.0887L61.5008 78.898L64.2544 77.7073C61.9048 72.2738 57.7197 68.6424 51.9469 66.9105L51.0848 69.784ZM61.5008 78.898L58.7748 80.1505C60.6329 84.1946 61.6628 89.8518 61.6628 97.312H64.6628H67.6628C67.6628 89.3962 66.5848 82.7774 64.2269 77.6455L61.5008 78.898ZM64.6628 97.312H61.6628V120.19H64.6628H67.6628V97.312H64.6628ZM64.6628 120.19H61.6628C61.6628 123.963 61.788 127.116 62.0513 129.618L65.0348 129.304L68.0184 128.99C67.7857 126.78 67.6628 123.857 67.6628 120.19H64.6628ZM65.0348 129.304L62.0532 129.635C62.3381 132.199 63.0472 134.729 64.1534 137.218L66.8949 136L69.6363 134.782C68.7585 132.807 68.2276 130.873 68.0165 128.973L65.0348 129.304ZM66.8949 136V133H46.0628V136V139H66.8949V136ZM46.0628 136L48.8918 135.002C48.204 133.053 47.7646 131.272 47.5485 129.652L44.5748 130.048L41.6012 130.444C41.8811 132.544 42.4337 134.731 43.2339 136.998L46.0628 136ZM44.5748 130.048L47.5485 129.652C47.3301 128.014 47.2028 124.851 47.2028 120.004H44.2028H41.2028C41.2028 124.829 41.3236 128.362 41.6012 130.444L44.5748 130.048ZM44.2028 120.004H47.2028V96.196H44.2028H41.2028V120.004H44.2028ZM44.2028 96.196H47.2028C47.2028 90.1055 46.2271 85.0144 43.5216 81.8016L41.2268 83.734L38.9321 85.6664C40.1946 87.1656 41.2028 90.3825 41.2028 96.196H44.2028ZM41.2268 83.734L43.5815 81.8751C40.8909 78.4669 36.4716 77.2 31.3688 77.2V80.2V83.2C35.6901 83.2 37.8428 84.2891 38.8722 85.5929L41.2268 83.734ZM31.3688 80.2V77.2H24.3008V80.2V83.2H31.3688V80.2ZM24.3008 80.2H21.3008V136H24.3008H27.3008V80.2H24.3008ZM24.3008 136V133H3.84084V136V139H24.3008V136ZM3.84084 136H6.84084V5.79999H3.84084H0.840844V136H3.84084ZM31.7408 61.6V64.6C36.3108 64.6 40.2869 63.4187 43.0394 60.4941L40.8548 58.438L38.6702 56.3819C37.4548 57.6733 35.3549 58.6 31.7408 58.6V61.6ZM40.8548 58.438L42.9762 60.5593C45.922 57.6134 47.0168 53.0919 47.0168 47.836H44.0168H41.0168C41.0168 52.5001 40.0036 55.0466 38.7335 56.3167L40.8548 58.438ZM44.0168 47.836H47.0168V37.792H44.0168H41.0168V47.836H44.0168ZM44.0168 37.792H47.0168C47.0168 32.8418 46.1297 28.5704 43.7286 25.6549L41.4128 27.562L39.0971 29.4691C40.168 30.7695 41.0168 33.3182 41.0168 37.792H44.0168ZM41.4128 27.562L43.7959 25.7396C41.4301 22.6459 37.7748 21.4 33.6008 21.4V24.4V27.4C36.6189 27.4 38.1716 28.2621 39.0298 29.3843L41.4128 27.562ZM33.6008 24.4V21.4H24.3008V24.4V27.4H33.6008V24.4ZM24.3008 24.4H21.3008V61.6H24.3008H27.3008V24.4H24.3008ZM24.3008 61.6V64.6H31.7408V61.6V58.6H24.3008V61.6ZM94.6684 5.79999V2.79999H92.1175L91.7074 5.31777L94.6684 5.79999ZM122.382 5.79999L125.343 5.31777L124.933 2.79999H122.382V5.79999ZM143.586 136V139H147.115L146.547 135.518L143.586 136ZM123.126 136L120.157 136.427L120.527 139H123.126V136ZM119.406 110.146L122.376 109.719L116.406 110.146H119.406ZM119.406 110.518V113.518H122.406V110.518H119.406ZM96.1564 110.518V107.518H93.5626L93.1879 110.085L96.1564 110.518ZM92.4364 136V139H95.0303L95.405 136.433L92.4364 136ZM73.4644 136L70.5034 135.518L69.9363 139H73.4644V136ZM116.988 92.848V95.848H120.443L119.959 92.4273L116.988 92.848ZM107.874 28.492L110.845 28.0713L110.479 25.492H107.874V28.492ZM107.502 28.492V25.492H104.89L104.531 28.0798L107.502 28.492ZM98.5744 92.848L95.6029 92.4358L95.1295 95.848H98.5744V92.848ZM94.6684 5.79999V8.79999H122.382V5.79999V2.79999H94.6684V5.79999ZM122.382 5.79999L119.421 6.28221L140.625 136.482L143.586 136L146.547 135.518L125.343 5.31777L122.382 5.79999ZM143.586 136V133H123.126V136V139H143.586V136ZM123.126 136L126.096 135.573L122.376 109.719L119.406 110.146L116.437 110.573L120.157 136.427L123.126 136ZM119.406 110.146H116.406V110.518H119.406H122.406V110.146H119.406ZM119.406 110.518V107.518H96.1564V110.518V113.518H119.406V110.518ZM96.1564 110.518L93.1879 110.085L89.4679 135.567L92.4364 136L95.405 136.433L99.125 110.951L96.1564 110.518ZM92.4364 136V133H73.4644V136V139H92.4364V136ZM73.4644 136L76.4254 136.482L97.6294 6.28221L94.6684 5.79999L91.7074 5.31777L70.5034 135.518L73.4644 136ZM116.988 92.848L119.959 92.4273L110.845 28.0713L107.874 28.492L104.904 28.9127L114.018 93.2687L116.988 92.848ZM107.874 28.492V25.492H107.502V28.492V31.492H107.874V28.492ZM107.502 28.492L104.531 28.0798L95.6029 92.4358L98.5744 92.848L101.546 93.2602L110.474 28.9042L107.502 28.492ZM98.5744 92.848V95.848H116.988V92.848V89.848H98.5744V92.848ZM153.513 5.79999V2.79999H150.513V5.79999H153.513ZM206.523 13.984L204.328 16.0292V16.0292L206.523 13.984ZM206.523 74.806L204.328 72.7608L206.523 74.806ZM173.973 82.99V79.99H170.973V82.99H173.973ZM173.973 136V139H176.973V136H173.973ZM153.513 136H150.513V139H153.513V136ZM191.085 61.6L188.892 59.553L188.854 59.5934L188.818 59.6352L191.085 61.6ZM191.085 27.19L188.818 29.1548L188.854 29.1965L188.892 29.2369L191.085 27.19ZM173.973 24.4V21.4H170.973V24.4H173.973ZM173.973 64.39H170.973V67.39H173.973V64.39ZM153.513 5.79999V8.79999H183.645V5.79999V2.79999H153.513V5.79999ZM183.645 5.79999V8.79999C193.294 8.79999 199.995 11.3788 204.328 16.0292L206.523 13.984L208.718 11.9388C202.883 5.67717 194.332 2.79999 183.645 2.79999V5.79999ZM206.523 13.984L204.328 16.0292C208.714 20.7364 211.149 27.8831 211.149 37.978H214.149H217.149C217.149 26.9929 214.499 18.1436 208.718 11.9388L206.523 13.984ZM214.149 37.978H211.149V50.812H214.149H217.149V37.978H214.149ZM214.149 50.812H211.149C211.149 60.9069 208.714 68.0536 204.328 72.7608L206.523 74.806L208.718 76.8512C214.499 70.6464 217.149 61.7971 217.149 50.812H214.149ZM206.523 74.806L204.328 72.7608C199.995 77.4112 193.294 79.99 183.645 79.99V82.99V85.99C194.332 85.99 202.883 83.1128 208.718 76.8512L206.523 74.806ZM183.645 82.99V79.99H173.973V82.99V85.99H183.645V82.99ZM173.973 82.99H170.973V136H173.973H176.973V82.99H173.973ZM173.973 136V133H153.513V136V139H173.973V136ZM153.513 136H156.513V5.79999H153.513H150.513V136H153.513ZM183.645 64.39V67.39C187.534 67.39 190.985 66.2957 193.352 63.5648L191.085 61.6L188.818 59.6352C187.96 60.6243 186.452 61.39 183.645 61.39V64.39ZM191.085 61.6L193.278 63.6469C195.804 60.9401 196.689 56.8133 196.689 52.114H193.689H190.689C190.689 56.3427 189.837 58.5399 188.892 59.553L191.085 61.6ZM193.689 52.114H196.689V36.676H193.689H190.689V52.114H193.689ZM193.689 36.676H196.689C196.689 31.9767 195.804 27.8499 193.278 25.143L191.085 27.19L188.892 29.2369C189.837 30.2501 190.689 32.4473 190.689 36.676H193.689ZM191.085 27.19L193.352 25.2252C190.985 22.4943 187.534 21.4 183.645 21.4V24.4V27.4C186.452 27.4 187.96 28.1657 188.818 29.1548L191.085 27.19ZM183.645 24.4V21.4H173.973V24.4V27.4H183.645V24.4ZM173.973 24.4H170.973V64.39H173.973H176.973V24.4H173.973ZM173.973 64.39V67.39H183.645V64.39V61.39H173.973V64.39ZM231.771 129.304L233.962 127.255L231.771 129.304ZM231.771 12.496L233.962 14.5446L231.771 12.496ZM277.899 12.496L275.707 14.5446V14.5446L277.899 12.496ZM277.899 129.304L275.707 127.255L277.899 129.304ZM254.835 137.86V134.86C245.37 134.86 238.576 132.19 233.962 127.255L231.771 129.304L229.579 131.353C235.63 137.826 244.212 140.86 254.835 140.86V137.86ZM231.771 129.304L233.962 127.255C229.304 122.271 226.773 115.039 226.773 105.124H223.773H220.773C220.773 116.041 223.574 124.929 229.579 131.353L231.771 129.304ZM223.773 105.124H226.773V36.676H223.773H220.773V105.124H223.773ZM223.773 36.676H226.773C226.773 26.7609 229.304 19.5285 233.962 14.5446L231.771 12.496L229.579 10.4473C223.574 16.8715 220.773 25.7591 220.773 36.676H223.773ZM231.771 12.496L233.962 14.5446C238.576 9.60964 245.37 6.93999 254.835 6.93999V3.93999V0.939993C244.212 0.939993 235.63 3.97435 229.579 10.4473L231.771 12.496ZM254.835 3.93999V6.93999C264.3 6.93999 271.094 9.60964 275.707 14.5446L277.899 12.496L280.09 10.4473C274.04 3.97435 265.458 0.939993 254.835 0.939993V3.93999ZM277.899 12.496L275.707 14.5446C280.366 19.5285 282.897 26.7609 282.897 36.676H285.897H288.897C288.897 25.7591 286.096 16.8715 280.09 10.4473L277.899 12.496ZM285.897 36.676H282.897V105.124H285.897H288.897V36.676H285.897ZM285.897 105.124H282.897C282.897 115.039 280.366 122.271 275.707 127.255L277.899 129.304L280.09 131.353C286.096 124.929 288.897 116.041 288.897 105.124H285.897ZM277.899 129.304L275.707 127.255C271.094 132.19 264.3 134.86 254.835 134.86V137.86V140.86C265.458 140.86 274.04 137.826 280.09 131.353L277.899 129.304ZM254.835 119.26V122.26C258.998 122.26 262.612 120.972 265.099 117.962C267.495 115.062 268.437 111.042 268.437 106.426H265.437H262.437C262.437 110.366 261.611 112.763 260.473 114.141C259.426 115.409 257.739 116.26 254.835 116.26V119.26ZM265.437 106.426H268.437V35.374H265.437H262.437V106.426H265.437ZM265.437 35.374H268.437C268.437 30.7582 267.495 26.7384 265.099 23.8379C262.612 20.8276 258.998 19.54 254.835 19.54V22.54V25.54C257.739 25.54 259.426 26.3914 260.473 27.6591C261.611 29.0366 262.437 31.4338 262.437 35.374H265.437ZM254.835 22.54V19.54C250.671 19.54 247.057 20.8276 244.57 23.8379C242.174 26.7384 241.233 30.7582 241.233 35.374H244.233H247.233C247.233 31.4338 248.058 29.0366 249.196 27.6591C250.243 26.3914 251.93 25.54 254.835 25.54V22.54ZM244.233 35.374H241.233V106.426H244.233H247.233V35.374H244.233ZM244.233 106.426H241.233C241.233 111.042 242.174 115.062 244.57 117.962C247.057 120.972 250.671 122.26 254.835 122.26V119.26V116.26C251.93 116.26 250.243 115.409 249.196 114.141C248.058 112.763 247.233 110.366 247.233 106.426H244.233ZM303.825 129.49L301.586 131.486L301.597 131.498L301.608 131.51L303.825 129.49ZM296.199 97.684V94.684H293.199V97.684H296.199ZM315.543 97.684H318.543V94.684H315.543V97.684ZM333.957 116.284L331.708 114.299L331.7 114.308L333.957 116.284ZM333.027 91.918L330.442 93.4391L330.452 93.456L330.462 93.4729L333.027 91.918ZM319.263 76.852L317.279 79.1015L317.286 79.1082L317.294 79.1149L319.263 76.852ZM301.593 56.764L298.966 58.2118L298.972 58.2233L298.979 58.2348L301.593 56.764ZM304.383 12.496L306.577 14.5429L306.588 14.5309L306.599 14.5188L304.383 12.496ZM349.209 12.496L346.946 14.4645L346.968 14.4908L346.992 14.5165L349.209 12.496ZM356.835 42.07V45.07H359.835V42.07H356.835ZM337.491 42.07H334.491V45.07H337.491V42.07ZM334.887 25.702L332.572 27.6091L332.6 27.6437L332.63 27.6775L334.887 25.702ZM320.751 48.208L318.186 49.7629L318.203 49.791L318.22 49.8186L320.751 48.208ZM334.701 63.088L332.732 65.3509L332.733 65.3518L334.701 63.088ZM352.371 83.362L349.721 84.7681L352.371 83.362ZM349.209 129.304L347.018 127.255L347.006 127.268L346.994 127.281L349.209 129.304ZM326.331 137.86V134.86C316.976 134.86 310.394 132.245 306.043 127.47L303.825 129.49L301.608 131.51C307.425 137.895 315.847 140.86 326.331 140.86V137.86ZM303.825 129.49L306.065 127.494C301.63 122.518 299.199 115.208 299.199 105.124H296.199H293.199C293.199 116.12 295.853 125.054 301.586 131.486L303.825 129.49ZM296.199 105.124H299.199V97.684H296.199H293.199V105.124H296.199ZM296.199 97.684V100.684H315.543V97.684V94.684H296.199V97.684ZM315.543 97.684H312.543V106.612H315.543H318.543V97.684H315.543ZM315.543 106.612H312.543C312.543 111.174 313.488 115.154 315.895 118.025C318.386 120.997 321.996 122.26 326.145 122.26V119.26V116.26C323.226 116.26 321.536 115.415 320.493 114.171C319.365 112.826 318.543 110.482 318.543 106.612H315.543ZM326.145 119.26V122.26C330.192 122.26 333.742 121.085 336.215 118.26L333.957 116.284L331.7 114.308C330.7 115.451 329.043 116.26 326.145 116.26V119.26ZM333.957 116.284L336.207 118.269C338.776 115.358 339.747 111.126 339.747 106.24H336.747H333.747C333.747 110.53 332.859 112.994 331.708 114.299L333.957 116.284ZM336.747 106.24H339.747C339.747 100.314 338.395 94.9869 335.593 90.3631L333.027 91.918L330.462 93.4729C332.62 97.0331 333.747 101.254 333.747 106.24H336.747ZM333.027 91.918L335.613 90.3969C332.886 85.7613 328.008 80.4861 321.233 74.5891L319.263 76.852L317.294 79.1149C323.911 84.8739 328.208 89.6427 330.442 93.4391L333.027 91.918ZM319.263 76.852L321.248 74.6025C312.927 67.2604 307.319 60.8239 304.208 55.2932L301.593 56.764L298.979 58.2348C302.564 64.6081 308.736 71.5635 317.279 79.1015L319.263 76.852ZM301.593 56.764L304.221 55.3162C301.139 49.723 299.571 43.4086 299.571 36.304H296.571H293.571C293.571 44.3274 295.352 51.653 298.966 58.2118L301.593 56.764ZM296.571 36.304H299.571C299.571 26.5023 302.046 19.3976 306.577 14.5429L304.383 12.496L302.19 10.449C296.305 16.7544 293.571 25.5217 293.571 36.304H296.571ZM304.383 12.496L306.599 14.5188C311.087 9.6033 317.744 6.93999 327.075 6.93999V3.93999V0.939993C316.567 0.939993 308.096 3.98068 302.168 10.4732L304.383 12.496ZM327.075 3.93999V6.93999C336.277 6.93999 342.714 9.59772 346.946 14.4645L349.209 12.496L351.473 10.5275C345.785 3.98627 337.465 0.939993 327.075 0.939993V3.93999ZM349.209 12.496L346.992 14.5165C351.403 19.3581 353.835 26.5867 353.835 36.676H356.835H359.835C359.835 25.6853 357.184 16.7939 351.427 10.4755L349.209 12.496ZM356.835 36.676H353.835V42.07H356.835H359.835V36.676H356.835ZM356.835 42.07V39.07H337.491V42.07V45.07H356.835V42.07ZM337.491 42.07H340.491V35.374H337.491H334.491V42.07H337.491ZM337.491 35.374H340.491C340.491 30.6475 339.596 26.5272 337.145 23.7265L334.887 25.702L332.63 27.6775C333.651 28.8448 334.491 31.1725 334.491 35.374H337.491ZM334.887 25.702L337.203 23.7949C334.77 20.8398 331.283 19.54 327.261 19.54V22.54V25.54C329.935 25.54 331.533 26.3482 332.572 27.6091L334.887 25.702ZM327.261 22.54V19.54C323.216 19.54 319.693 20.8008 317.27 23.752C314.941 26.5899 314.031 30.5136 314.031 35.002H317.031H320.031C320.031 31.1824 320.827 28.8751 321.908 27.559C322.895 26.3562 324.487 25.54 327.261 25.54V22.54ZM317.031 35.002H314.031C314.031 40.2711 315.426 45.2097 318.186 49.7629L320.751 48.208L323.317 46.6531C321.117 43.0223 320.031 39.1569 320.031 35.002H317.031ZM320.751 48.208L318.22 49.8186C321.058 54.2775 325.967 59.4628 332.732 65.3509L334.701 63.088L336.671 60.8251C330.044 55.0572 325.653 50.3225 323.282 46.5974L320.751 48.208ZM334.701 63.088L332.733 65.3518C341.168 72.6863 346.746 79.1607 349.721 84.7681L352.371 83.362L355.021 81.9558C351.549 75.4113 345.347 68.3697 336.67 60.8242L334.701 63.088ZM352.371 83.362L349.721 84.7681C352.676 90.3359 354.207 96.9655 354.207 104.752H357.207H360.207C360.207 96.1705 358.515 88.5401 355.021 81.9558L352.371 83.362ZM357.207 104.752H354.207C354.207 114.937 351.665 122.284 347.018 127.255L349.209 129.304L351.401 131.353C357.417 124.916 360.207 115.895 360.207 104.752H357.207ZM349.209 129.304L346.994 127.281C342.513 132.189 335.8 134.86 326.331 134.86V137.86V140.86C336.951 140.86 345.49 137.827 351.425 131.327L349.209 129.304ZM375.448 129.304L377.64 127.255L375.448 129.304ZM375.448 12.496L377.64 14.5446L375.448 12.496ZM421.577 12.496L419.385 14.5446V14.5446L421.577 12.496ZM421.577 129.304L419.385 127.255L421.577 129.304ZM398.513 137.86V134.86C389.048 134.86 382.253 132.19 377.64 127.255L375.448 129.304L373.257 131.353C379.308 137.826 387.889 140.86 398.513 140.86V137.86ZM375.448 129.304L377.64 127.255C372.981 122.271 370.451 115.039 370.451 105.124H367.451H364.451C364.451 116.041 367.252 124.929 373.257 131.353L375.448 129.304ZM367.451 105.124H370.451V36.676H367.451H364.451V105.124H367.451ZM367.451 36.676H370.451C370.451 26.7609 372.981 19.5285 377.64 14.5446L375.448 12.496L373.257 10.4473C367.252 16.8715 364.451 25.7591 364.451 36.676H367.451ZM375.448 12.496L377.64 14.5446C382.253 9.60964 389.048 6.93999 398.513 6.93999V3.93999V0.939993C387.889 0.939993 379.308 3.97435 373.257 10.4473L375.448 12.496ZM398.513 3.93999V6.93999C407.977 6.93999 414.772 9.60964 419.385 14.5446L421.577 12.496L423.768 10.4473C417.717 3.97435 409.136 0.939993 398.513 0.939993V3.93999ZM421.577 12.496L419.385 14.5446C424.044 19.5285 426.574 26.7609 426.574 36.676H429.574H432.574C432.574 25.7591 429.773 16.8715 423.768 10.4473L421.577 12.496ZM429.574 36.676H426.574V105.124H429.574H432.574V36.676H429.574ZM429.574 105.124H426.574C426.574 115.039 424.044 122.271 419.385 127.255L421.577 129.304L423.768 131.353C429.773 124.929 432.574 116.041 432.574 105.124H429.574ZM421.577 129.304L419.385 127.255C414.772 132.19 407.977 134.86 398.513 134.86V137.86V140.86C409.136 140.86 417.717 137.826 423.768 131.353L421.577 129.304ZM398.513 119.26V122.26C402.676 122.26 406.29 120.972 408.777 117.962C411.173 115.062 412.115 111.042 412.115 106.426H409.115H406.115C406.115 110.366 405.289 112.763 404.151 114.141C403.104 115.409 401.417 116.26 398.513 116.26V119.26ZM409.115 106.426H412.115V35.374H409.115H406.115V106.426H409.115ZM409.115 35.374H412.115C412.115 30.7582 411.173 26.7384 408.777 23.8379C406.29 20.8276 402.676 19.54 398.513 19.54V22.54V25.54C401.417 25.54 403.104 26.3914 404.151 27.6591C405.289 29.0366 406.115 31.4338 406.115 35.374H409.115ZM398.513 22.54V19.54C394.349 19.54 390.735 20.8276 388.248 23.8379C385.852 26.7384 384.91 30.7582 384.91 35.374H387.91H390.91C390.91 31.4338 391.736 29.0366 392.874 27.6591C393.921 26.3914 395.608 25.54 398.513 25.54V22.54ZM387.91 35.374H384.91V106.426H387.91H390.91V35.374H387.91ZM387.91 106.426H384.91C384.91 111.042 385.852 115.062 388.248 117.962C390.735 120.972 394.349 122.26 398.513 122.26V119.26V116.26C395.608 116.26 393.921 115.409 392.874 114.141C391.736 112.763 390.91 110.366 390.91 106.426H387.91Z" fill="#F5F5F5" fill-opacity="0.5" mask="url(#path-1-outside-1_63_279)"/>
</svg>
